<?xml version="1.0" encoding="iso-8859-1"?>
<!-- Uploaded to: SVG Repo, www.svgrepo.com, Generator: SVG Repo Mixer Tools -->
<svg fill="#000000" height="800px" width="800px" version="1.1" id="Layer_1" xmlns="http://www.w3.org/2000/svg" xmlns:xlink="http://www.w3.org/1999/xlink" 
	 viewBox="0 0 512 512" xml:space="preserve">
<g>
	<g>
		<path d="M293.737,75.784L273.79,1.122l0.905-0.242c-12.18-1.152-24.437-1.173-36.62-0.069l-19.969,75.235
			c-18.294,68.927-16.232,141.184,5.967,208.955l25.636,78.269h12.689l25.53-77.944C310.192,217.348,312.201,144.89,293.737,75.784z
			"/>
	</g>
</g>
<g>
	<g>
		<path d="M430.355,131.961c-5.29-37.167-24.817-69.944-54.981-92.293C352.208,22.504,326.457,10.917,299.8,4.89l17.276,64.658
			c19.677,73.642,17.536,150.857-6.191,223.298l-23.067,70.426h18.621l96.873-127.343
			C426.042,206.05,435.646,169.128,430.355,131.961z"/>
	</g>
</g>
<g>
	<g>
		<path d="M306.429,424.249l4.436-36.823h-24.33l-3.946,32.76h-14.947c0.275-1.013,0.436-2.074,0.436-3.174v-10.705
			c0-6.671-5.409-12.078-12.078-12.078c-6.671,0-12.078,5.407-12.078,12.078v10.705c0,1.1,0.159,2.161,0.436,3.174h-14.946
			l-3.946-32.759h-24.332l4.435,36.823c-4.556,3.535-7.501,9.05-7.501,15.263v53.158c0,10.675,8.654,19.329,19.329,19.329h77.204
			c10.675,0,19.328-8.654,19.328-19.329v-53.158C313.929,433.3,310.984,427.786,306.429,424.249z"/>
	</g>
</g>
<g>
	<g>
		<path d="M201.116,292.522c-23.654-72.221-25.853-149.218-6.359-222.671L211.985,4.94c-26.581,6.04-52.255,17.61-75.359,34.727
			c-30.165,22.348-49.691,55.126-54.981,92.293c-5.292,37.167,4.313,74.09,27.043,103.968l96.875,127.343h18.727L201.116,292.522z"
			/>
	</g>
</g>
</svg>